<svg width="585" height="567" viewBox="0 0 585 567" fill="none" xmlns="http://www.w3.org/2000/svg">
<path fill-rule="evenodd" clip-rule="evenodd" d="M240.185 11.3367C300.451 4.98333 358.858 24.692 412.685 52.5263C472.832 83.629 540.555 116.154 564.992 179.297C589.573 242.809 558.97 311.939 538.182 376.791C518.022 439.682 507.38 520.357 447.049 547.242C385.919 574.483 323.007 508.852 256.396 502.36C203.228 497.178 148.051 537.706 100.452 513.461C51.659 488.608 25.1371 432.28 13.6942 378.737C3.11826 329.25 27.9631 282.11 40.5333 233.091C53.6112 182.093 53.3557 125.823 88.5852 86.6935C127.289 43.705 182.654 17.4016 240.185 11.3367Z" fill="#DAEDFF"/>
<path d="M461.441 124.165H198.559C186.119 124.165 176 134.317 176 146.797V345.957C176 358.436 186.119 368.589 198.559 368.589H294.843L289.413 387.656C287.232 395.314 278.684 401.782 270.746 401.782H236.758C234.266 401.782 232.246 403.808 232.246 406.308C232.246 408.809 234.266 410.835 236.758 410.835H423.242C425.734 410.835 427.754 408.809 427.754 406.308C427.754 403.808 425.734 401.782 423.242 401.782H389.254C381.316 401.782 372.768 395.313 370.587 387.656L365.157 368.589H461.441C473.881 368.589 484 358.436 484 345.957V146.797C484 134.317 473.881 124.165 461.441 124.165ZM198.559 133.218H461.441C468.905 133.218 474.977 139.309 474.977 146.797V305.219H185.023V146.797C185.023 139.309 191.095 133.218 198.559 133.218ZM361.911 390.143C363.149 394.492 365.61 398.486 368.836 401.782H291.164C294.39 398.486 296.851 394.491 298.089 390.143L304.227 368.589H355.772L361.911 390.143ZM461.441 359.536H198.559C191.095 359.536 185.023 353.444 185.023 345.957V314.272H474.977V345.957C474.977 353.444 468.905 359.536 461.441 359.536Z" fill="black"/>
<path d="M198.559 296.167H461.441C463.933 296.167 465.953 294.141 465.953 291.64V146.797C465.953 144.296 463.933 142.27 461.441 142.27H198.559C196.067 142.27 194.047 144.296 194.047 146.797V210.166C194.047 212.666 196.067 214.692 198.559 214.692C201.05 214.692 203.07 212.666 203.07 210.166V151.323H456.93V287.114H203.07V228.271C203.07 225.771 201.05 223.745 198.559 223.745C196.067 223.745 194.047 225.771 194.047 228.271V291.64C194.047 294.141 196.067 296.167 198.559 296.167Z" fill="black"/>
<path d="M330 323.325C322.536 323.325 316.465 329.417 316.465 336.904C316.465 344.391 322.536 350.483 330 350.483C337.464 350.483 343.535 344.391 343.535 336.904C343.535 329.417 337.464 323.325 330 323.325ZM330 341.43C327.512 341.43 325.488 339.4 325.488 336.904C325.488 334.408 327.512 332.378 330 332.378C332.488 332.378 334.512 334.408 334.512 336.904C334.512 339.4 332.488 341.43 330 341.43Z" fill="black"/>
<g clip-path="url(#clip0)">
<rect width="76.446" height="76.6943" transform="translate(292.331 185.248)" fill="#79D8EB"/>
<path d="M335.22 258.083L324.029 216.182C323.503 214.213 324.668 212.19 326.63 211.662L337.082 208.852C335.819 207.282 334.242 205.976 332.446 205.033C332.001 204.799 331.715 204.343 331.715 203.838V198.633H309.513V203.838C309.513 204.343 309.228 204.799 308.782 205.033C304.097 207.494 300.901 212.417 300.901 218.09V256.936C300.901 259.08 302.634 260.819 304.771 260.819H336.457C336.867 260.819 337.262 260.755 337.632 260.636C336.491 260.262 335.554 259.334 335.22 258.083Z" fill="#702ED3" fill-opacity="0.8"/>
<path d="M325.793 198.633V199.63C325.793 200.808 326.389 201.914 327.39 202.53C330.13 204.217 332.276 206.78 333.44 209.831L337.081 208.853C335.813 207.274 334.226 205.963 332.419 205.019C331.982 204.791 331.714 204.332 331.714 203.838V198.633H325.793Z" fill="#702ED3"/>
<path d="M335.22 258.083L333.063 250.005C330.851 254.63 326.14 257.823 320.686 257.823H301.002C301.402 259.54 302.938 260.819 304.771 260.819H336.457C336.867 260.819 337.262 260.755 337.633 260.636C336.491 260.262 335.554 259.334 335.22 258.083Z" fill="#702ED3"/>
<path d="M333.386 198.633H307.842C307.119 198.633 306.533 198.045 306.533 197.32V187.684C306.533 186.959 307.119 186.372 307.842 186.372H333.386C334.109 186.372 334.694 186.959 334.694 187.684V197.32C334.694 198.045 334.109 198.633 333.386 198.633Z" fill="#5C90B9"/>
<path d="M333.386 186.372H328.722V189.821C328.722 193.033 326.127 195.637 322.925 195.637H306.533V197.32C306.533 198.045 307.119 198.633 307.842 198.633H333.386C334.109 198.633 334.694 198.045 334.694 197.32V187.684C334.694 186.959 334.109 186.372 333.386 186.372Z" fill="#4A80AA"/>
<path d="M318.542 220.854C318.542 219.328 317.308 218.09 315.786 218.09H300.901V226.649H318.542V220.854Z" fill="#5C90B9"/>
<path d="M300.901 226.649V250.964H315.786C317.308 250.964 318.542 249.727 318.542 248.2V226.649H300.901Z" fill="#F1F1F4"/>
<path d="M360.081 251.4C360.607 253.368 359.443 255.392 357.481 255.919L339.725 260.692C337.763 261.22 335.746 260.052 335.22 258.083L324.029 216.182C323.503 214.213 324.668 212.19 326.63 211.662L344.385 206.889C346.348 206.362 348.364 207.53 348.89 209.498L360.081 251.4Z" fill="#C6C1C8"/>
<path d="M360.081 251.4L348.89 209.498C348.365 207.53 346.348 206.362 344.385 206.889L343.113 207.231L351.79 239.72C353.596 246.485 349.595 253.438 342.853 255.25L335.025 257.354L335.22 258.083C335.746 260.052 337.763 261.22 339.725 260.693L357.481 255.92C359.443 255.392 360.607 253.368 360.081 251.4Z" fill="#AFAAB4"/>
<path d="M333.811 217.648C333.811 219.182 332.571 220.426 331.041 220.426C329.511 220.426 328.271 219.182 328.271 217.648C328.271 216.113 329.511 214.869 331.041 214.869C332.571 214.869 333.811 216.113 333.811 217.648ZM333.473 223.976C331.944 223.976 330.704 225.22 330.704 226.755C330.704 228.289 331.944 229.533 333.473 229.533C335.003 229.533 336.243 228.289 336.243 226.755C336.243 225.22 335.003 223.976 333.473 223.976ZM335.906 233.083C334.376 233.083 333.136 234.327 333.136 235.861C333.136 237.396 334.376 238.64 335.906 238.64C337.435 238.64 338.675 237.396 338.675 235.861C338.675 234.327 337.435 233.083 335.906 233.083ZM338.338 242.19C336.808 242.19 335.568 243.434 335.568 244.968C335.568 246.503 336.808 247.747 338.338 247.747C339.868 247.747 341.108 246.503 341.108 244.968C341.108 243.434 339.868 242.19 338.338 242.19ZM340.77 251.297C339.241 251.297 338.001 252.541 338.001 254.075C338.001 255.61 339.241 256.854 340.77 256.854C342.3 256.854 343.54 255.61 343.54 254.075C343.54 252.541 342.3 251.297 340.77 251.297ZM343.341 211.563C341.811 211.563 340.571 212.807 340.571 214.341C340.571 215.876 341.811 217.12 343.341 217.12C344.87 217.12 346.11 215.876 346.11 214.341C346.11 212.807 344.87 211.563 343.341 211.563ZM345.773 220.67C344.243 220.67 343.003 221.914 343.003 223.448C343.003 224.983 344.243 226.227 345.773 226.227C347.303 226.227 348.543 224.983 348.543 223.448C348.543 221.914 347.303 220.67 345.773 220.67ZM348.205 229.777C346.676 229.777 345.436 231.021 345.436 232.555C345.436 234.09 346.676 235.334 348.205 235.334C349.735 235.334 350.975 234.09 350.975 232.555C350.975 231.021 349.735 229.777 348.205 229.777ZM350.637 238.883C349.108 238.883 347.868 240.127 347.868 241.662C347.868 243.197 349.108 244.441 350.637 244.441C352.167 244.441 353.407 243.197 353.407 241.662C353.407 240.127 352.167 238.883 350.637 238.883ZM353.07 247.99C351.54 247.99 350.3 249.234 350.3 250.769C350.3 252.304 351.54 253.548 353.07 253.548C354.6 253.548 355.84 252.304 355.84 250.769C355.84 249.234 354.6 247.99 353.07 247.99Z" fill="#E28086"/>
<path d="M353.407 241.662C353.407 240.472 352.662 239.457 351.614 239.061L351.79 239.72C352.17 241.143 352.293 242.575 352.188 243.965C352.923 243.465 353.407 242.62 353.407 241.662Z" fill="#DD636E"/>
<path d="M349.182 229.954L350.347 234.317C350.739 233.838 350.975 233.224 350.975 232.555C350.975 231.365 350.229 230.35 349.182 229.954Z" fill="#DD636E"/>
<path d="M346.749 220.847L347.914 225.21C348.307 224.731 348.542 224.117 348.542 223.448C348.542 222.259 347.797 221.243 346.749 220.847Z" fill="#DD636E"/>
<path d="M355.845 251.082C355.996 249.555 354.885 248.194 353.363 248.042C351.841 247.891 350.485 249.005 350.333 250.532C350.182 252.059 351.293 253.42 352.815 253.572C354.337 253.724 355.694 252.609 355.845 251.082Z" fill="#DD636E"/>
<path d="M344.317 211.74L345.482 216.103C345.875 215.624 346.11 215.01 346.11 214.341C346.11 213.152 345.365 212.136 344.317 211.74Z" fill="#DD636E"/>
<path d="M343.342 255.108C343.181 255.158 343.018 255.206 342.853 255.25L339.068 256.267C339.537 256.635 340.128 256.854 340.77 256.854C341.936 256.854 342.934 256.131 343.342 255.108Z" fill="#DD636E"/>
<path d="M310.254 188.98C309.635 188.98 309.134 189.483 309.134 190.104V194.9C309.134 195.521 309.635 196.024 310.254 196.024C310.872 196.024 311.373 195.521 311.373 194.9V190.104C311.373 189.483 310.872 188.98 310.254 188.98Z" fill="black"/>
<path d="M315.518 194.9V190.104C315.518 189.483 315.016 188.98 314.398 188.98C313.779 188.98 313.278 189.483 313.278 190.104V194.9C313.278 195.521 313.779 196.024 314.398 196.024C315.016 196.024 315.518 195.521 315.518 194.9Z" fill="black"/>
<path d="M318.542 196.024C319.16 196.024 319.662 195.521 319.662 194.9V190.104C319.662 189.483 319.16 188.98 318.542 188.98C317.923 188.98 317.422 189.483 317.422 190.104V194.9C317.422 195.521 317.923 196.024 318.542 196.024Z" fill="black"/>
<path d="M322.686 196.024C323.304 196.024 323.806 195.521 323.806 194.9V190.104C323.806 189.483 323.304 188.98 322.686 188.98C322.068 188.98 321.566 189.483 321.566 190.104V194.9C321.566 195.521 322.068 196.024 322.686 196.024Z" fill="black"/>
<path d="M326.83 196.024C327.448 196.024 327.95 195.521 327.95 194.9V190.104C327.95 189.483 327.448 188.98 326.83 188.98C326.212 188.98 325.71 189.483 325.71 190.104V194.9C325.71 195.521 326.212 196.024 326.83 196.024Z" fill="black"/>
<path d="M330.974 196.024C331.593 196.024 332.094 195.521 332.094 194.9V190.104C332.094 189.483 331.593 188.98 330.974 188.98C330.356 188.98 329.854 189.483 329.854 190.104V194.9C329.854 195.521 330.356 196.024 330.974 196.024Z" fill="black"/>
<path d="M326.766 203.361C326.766 202.74 326.264 202.238 325.646 202.238H315.582C314.964 202.238 314.462 202.74 314.462 203.361C314.462 203.982 314.964 204.484 315.582 204.484H325.646C326.264 204.484 326.766 203.982 326.766 203.361Z" fill="black"/>
<path d="M311.844 230.671H310.105C309.487 230.671 308.986 231.174 308.986 231.795C308.986 232.415 309.487 232.918 310.105 232.918H311.844C312.463 232.918 312.964 232.415 312.964 231.795C312.964 231.174 312.463 230.671 311.844 230.671Z" fill="black"/>
<path d="M311.844 235.346H310.105C309.487 235.346 308.986 235.849 308.986 236.469C308.986 237.09 309.487 237.593 310.105 237.593H311.844C312.463 237.593 312.964 237.09 312.964 236.469C312.964 235.849 312.463 235.346 311.844 235.346Z" fill="black"/>
<path d="M311.844 240.021H310.105C309.487 240.021 308.986 240.524 308.986 241.144C308.986 241.765 309.487 242.268 310.105 242.268H311.844C312.463 242.268 312.964 241.765 312.964 241.144C312.964 240.524 312.463 240.021 311.844 240.021Z" fill="black"/>
<path d="M311.844 244.696H310.105C309.487 244.696 308.986 245.198 308.986 245.819C308.986 246.44 309.487 246.942 310.105 246.942H311.844C312.463 246.942 312.964 246.44 312.964 245.819C312.964 245.198 312.463 244.696 311.844 244.696Z" fill="black"/>
<path d="M361.163 251.109L352.696 219.405C352.535 218.805 351.922 218.45 351.324 218.61C350.727 218.771 350.372 219.387 350.532 219.986L359 251.691C359.365 253.058 358.553 254.468 357.191 254.834L339.435 259.607C338.073 259.973 336.667 259.159 336.302 257.792L325.111 215.891C324.746 214.524 325.557 213.113 326.92 212.747C329.472 212.061 342.658 208.516 344.675 207.974C346.038 207.608 347.443 208.422 347.809 209.789L349.159 214.844C349.319 215.444 349.933 215.799 350.53 215.639C351.128 215.478 351.482 214.862 351.322 214.263L349.972 209.208C349.287 206.644 346.651 205.117 344.096 205.804L337.478 207.583C336.191 206.122 334.666 204.926 332.936 204.022C332.874 203.99 332.834 203.918 332.834 203.838V199.756H333.386C334.725 199.756 335.814 198.663 335.814 197.32V187.684C335.814 186.341 334.725 185.248 333.386 185.248H307.842C306.503 185.248 305.414 186.341 305.414 187.684V197.32C305.414 198.664 306.503 199.756 307.842 199.756H308.394V203.838C308.394 203.919 308.351 203.991 308.283 204.027C303.039 206.772 299.781 212.161 299.781 218.09V256.936C299.781 259.697 302.02 261.942 304.771 261.942H336.457C336.855 261.942 337.249 261.896 337.632 261.803C338.415 261.996 339.231 261.988 340.015 261.777L357.77 257.004C360.326 256.317 361.848 253.673 361.163 251.109ZM302.021 246.942H306.373C306.991 246.942 307.492 246.44 307.492 245.819C307.492 245.198 306.991 244.696 306.373 244.696H302.021V242.268H306.373C306.991 242.268 307.492 241.765 307.492 241.144C307.492 240.524 306.991 240.021 306.373 240.021H302.021V237.593H306.373C306.991 237.593 307.492 237.09 307.492 236.469C307.492 235.849 306.991 235.346 306.373 235.346H302.021V232.918H306.373C306.991 232.918 307.492 232.415 307.492 231.795C307.492 231.174 306.991 230.671 306.373 230.671H302.021V227.773H317.422V248.2C317.422 249.105 316.688 249.841 315.786 249.841H302.021V246.942ZM302.021 256.936V252.088H315.786C317.923 252.088 319.662 250.344 319.662 248.2V220.855C319.662 218.711 317.923 216.967 315.786 216.967H308.773C308.155 216.967 307.653 217.469 307.653 218.09C307.653 218.711 308.155 219.213 308.773 219.213H315.786C316.688 219.213 317.422 219.95 317.422 220.855V225.526H302.021V219.213H303.547C304.166 219.213 304.667 218.711 304.667 218.09C304.667 217.469 304.166 216.967 303.547 216.967H302.066C302.445 212.327 305.151 208.201 309.319 206.019C310.13 205.594 310.633 204.759 310.633 203.838V199.756H313.122C313.74 199.756 314.242 199.253 314.242 198.633C314.242 198.012 313.74 197.509 313.122 197.509H307.842C307.738 197.509 307.654 197.424 307.654 197.32V187.684C307.654 187.58 307.738 187.495 307.842 187.495H333.386C333.49 187.495 333.575 187.58 333.575 187.684V197.32C333.575 197.424 333.49 197.509 333.386 197.509H318.347C317.729 197.509 317.228 198.012 317.228 198.633C317.228 199.253 317.729 199.756 318.347 199.756H330.595V203.838C330.595 204.76 331.096 205.594 331.902 206.015C333.046 206.613 334.086 207.361 335.01 208.246L326.34 210.577C323.785 211.264 322.263 213.908 322.947 216.472L334.139 258.374C334.267 258.853 334.463 259.296 334.714 259.695H304.771C303.255 259.695 302.021 258.458 302.021 256.936Z" fill="black"/>
<path d="M334.931 217.648C334.931 215.496 333.186 213.746 331.041 213.746C328.896 213.746 327.152 215.496 327.152 217.648C327.152 219.799 328.896 221.55 331.041 221.55C333.186 221.55 334.931 219.799 334.931 217.648ZM329.391 217.648C329.391 216.735 330.131 215.993 331.041 215.993C331.951 215.993 332.691 216.735 332.691 217.648C332.691 218.561 331.951 219.303 331.041 219.303C330.131 219.303 329.391 218.561 329.391 217.648Z" fill="black"/>
<path d="M333.473 230.657C335.618 230.657 337.363 228.906 337.363 226.755C337.363 224.603 335.618 222.853 333.473 222.853C331.328 222.853 329.583 224.603 329.583 226.755C329.583 228.906 331.328 230.657 333.473 230.657ZM333.473 225.099C334.383 225.099 335.123 225.842 335.123 226.755C335.123 227.667 334.383 228.41 333.473 228.41C332.563 228.41 331.823 227.667 331.823 226.755C331.823 225.842 332.563 225.099 333.473 225.099Z" fill="black"/>
<path d="M335.905 239.764C338.05 239.764 339.795 238.013 339.795 235.862C339.795 233.71 338.05 231.959 335.905 231.959C333.761 231.959 332.016 233.71 332.016 235.862C332.016 238.013 333.761 239.764 335.905 239.764ZM335.905 234.207C336.815 234.207 337.555 234.949 337.555 235.862C337.555 236.775 336.815 237.517 335.905 237.517C334.996 237.517 334.255 236.775 334.255 235.862C334.255 234.949 334.996 234.207 335.905 234.207Z" fill="black"/>
<path d="M338.338 248.871C340.482 248.871 342.227 247.12 342.227 244.968C342.227 242.817 340.482 241.066 338.338 241.066C336.193 241.066 334.448 242.817 334.448 244.968C334.448 247.12 336.193 248.871 338.338 248.871ZM338.338 243.313C339.247 243.313 339.988 244.056 339.988 244.969C339.988 245.881 339.247 246.624 338.338 246.624C337.428 246.624 336.688 245.881 336.688 244.969C336.688 244.056 337.428 243.313 338.338 243.313Z" fill="black"/>
<path d="M340.77 257.978C342.915 257.978 344.66 256.227 344.66 254.075C344.66 251.924 342.915 250.173 340.77 250.173C338.625 250.173 336.881 251.924 336.881 254.075C336.881 256.227 338.625 257.978 340.77 257.978ZM340.77 252.42C341.68 252.42 342.42 253.163 342.42 254.076C342.42 254.988 341.68 255.731 340.77 255.731C339.86 255.731 339.12 254.988 339.12 254.076C339.12 253.163 339.86 252.42 340.77 252.42Z" fill="black"/>
<path d="M347.261 253.697C347.858 253.537 348.212 252.921 348.053 252.321L338.222 215.514C338.062 214.915 337.448 214.558 336.85 214.719C336.253 214.88 335.898 215.496 336.058 216.095L345.889 252.903C346.05 253.504 346.666 253.858 347.261 253.697Z" fill="black"/>
<path d="M343.34 210.439C341.196 210.439 339.451 212.19 339.451 214.341C339.451 216.493 341.196 218.244 343.34 218.244C345.485 218.244 347.23 216.493 347.23 214.341C347.23 212.19 345.485 210.439 343.34 210.439ZM343.34 215.997C342.431 215.997 341.691 215.254 341.691 214.341C341.691 213.428 342.431 212.686 343.34 212.686C344.25 212.686 344.99 213.428 344.99 214.341C344.99 215.254 344.25 215.997 343.34 215.997Z" fill="black"/>
<path d="M341.883 223.449C341.883 225.6 343.628 227.351 345.773 227.351C347.917 227.351 349.662 225.6 349.662 223.449C349.662 221.297 347.917 219.546 345.773 219.546C343.628 219.546 341.883 221.297 341.883 223.449ZM347.423 223.449C347.423 224.361 346.683 225.104 345.773 225.104C344.863 225.104 344.123 224.361 344.123 223.449C344.123 222.536 344.863 221.793 345.773 221.793C346.683 221.793 347.423 222.536 347.423 223.449Z" fill="black"/>
<path d="M348.205 228.653C346.06 228.653 344.315 230.404 344.315 232.555C344.315 234.707 346.06 236.457 348.205 236.457C350.35 236.457 352.095 234.707 352.095 232.555C352.095 230.404 350.35 228.653 348.205 228.653ZM348.205 234.21C347.295 234.21 346.555 233.468 346.555 232.555C346.555 231.642 347.295 230.9 348.205 230.9C349.115 230.9 349.855 231.642 349.855 232.555C349.855 233.468 349.115 234.21 348.205 234.21Z" fill="black"/>
<path d="M350.637 237.76C348.493 237.76 346.748 239.511 346.748 241.662C346.748 243.814 348.493 245.565 350.637 245.565C352.782 245.565 354.527 243.814 354.527 241.662C354.527 239.511 352.782 237.76 350.637 237.76ZM350.637 243.318C349.728 243.318 348.987 242.575 348.987 241.662C348.987 240.749 349.728 240.007 350.637 240.007C351.547 240.007 352.287 240.749 352.287 241.662C352.287 242.575 351.547 243.318 350.637 243.318Z" fill="black"/>
<path d="M349.18 250.769C349.18 252.92 350.925 254.671 353.07 254.671C355.214 254.671 356.959 252.92 356.959 250.769C356.959 248.617 355.214 246.867 353.07 246.867C350.925 246.867 349.18 248.617 349.18 250.769ZM354.72 250.769C354.72 251.682 353.98 252.424 353.07 252.424C352.16 252.424 351.42 251.682 351.42 250.769C351.42 249.856 352.16 249.114 353.07 249.114C353.98 249.114 354.72 249.856 354.72 250.769Z" fill="black"/>
</g>
<g clip-path="url(#clip1)">
<path d="M409.934 248.127L397.751 244.327L408.439 278.811L413.663 268.26L424.146 278.776L432.089 270.807L421.606 260.29L432.124 255.05L409.934 248.127Z" fill="#F4EA91"/>
<path d="M423.149 260.544L432.529 255.87C432.863 255.703 433.063 255.35 433.033 254.977C433.004 254.604 432.751 254.287 432.395 254.176L417.186 249.431C416.705 249.281 416.193 249.551 416.044 250.033C415.894 250.516 416.163 251.029 416.644 251.179L429.679 255.246L421.201 259.471C420.938 259.602 420.754 259.852 420.706 260.143C420.658 260.434 420.754 260.729 420.961 260.938L430.799 270.808L424.146 277.482L414.308 267.612C414.101 267.404 413.806 267.309 413.516 267.356C413.226 267.404 412.977 267.589 412.846 267.852L408.635 276.359L399.138 245.718L409.662 249.001C410.144 249.151 410.655 248.882 410.805 248.399C410.954 247.916 410.685 247.403 410.204 247.253L398.022 243.453C397.698 243.351 397.345 243.439 397.106 243.679C396.866 243.92 396.779 244.274 396.88 244.598L407.568 279.083C407.678 279.44 407.995 279.694 408.366 279.723C408.391 279.725 408.415 279.726 408.44 279.726C408.784 279.726 409.101 279.531 409.257 279.218L413.916 269.807L423.501 279.424C423.857 279.781 424.435 279.781 424.791 279.424L432.735 271.454C433.091 271.097 433.091 270.518 432.735 270.16L423.149 260.544Z" fill="black"/>
<path d="M391.088 236.348C390.732 235.991 390.154 235.991 389.798 236.348C389.441 236.705 389.441 237.285 389.798 237.642L392.117 239.969C392.295 240.148 392.529 240.237 392.763 240.237C392.996 240.237 393.229 240.148 393.408 239.969C393.764 239.612 393.764 239.032 393.408 238.675L391.088 236.348Z" fill="black"/>
<path d="M402.739 240.237C402.972 240.237 403.206 240.148 403.384 239.969L405.704 237.642C406.06 237.285 406.06 236.705 405.704 236.348C405.347 235.991 404.77 235.991 404.413 236.348L402.094 238.675C401.738 239.032 401.738 239.612 402.094 239.969C402.272 240.148 402.506 240.237 402.739 240.237Z" fill="black"/>
<path d="M392.117 248.684L389.798 251.011C389.441 251.368 389.441 251.948 389.798 252.306C389.976 252.484 390.209 252.574 390.443 252.574C390.677 252.574 390.91 252.484 391.088 252.306L393.408 249.978C393.764 249.621 393.764 249.041 393.408 248.684C393.051 248.326 392.474 248.326 392.117 248.684Z" fill="black"/>
<path d="M397.751 238.165C398.255 238.165 398.663 237.755 398.663 237.249V233.958C398.663 233.453 398.255 233.043 397.751 233.043C397.247 233.043 396.838 233.453 396.838 233.958V237.249C396.838 237.755 397.247 238.165 397.751 238.165Z" fill="black"/>
<path d="M391.609 244.327C391.609 243.821 391.2 243.411 390.696 243.411H387.416C386.912 243.411 386.504 243.821 386.504 244.327C386.504 244.832 386.912 245.242 387.416 245.242H390.696C391.2 245.242 391.609 244.832 391.609 244.327Z" fill="black"/>
<path d="M412.576 249.562C412.724 249.921 413.094 250.15 413.479 250.125C413.866 250.101 414.199 249.823 414.3 249.449C414.4 249.08 414.251 248.674 413.935 248.458C413.63 248.25 413.22 248.245 412.913 248.451C412.556 248.691 412.412 249.163 412.576 249.562Z" fill="black"/>
</g>
<g clip-path="url(#clip2)">
<path d="M219.781 416.172H189.469L204.625 401.094L219.781 416.172Z" fill="#EBE7E8"/>
<path d="M219.781 274.108V416.172L204.625 401.094V274.108H219.781Z" fill="#EBE7E8"/>
<path d="M204.625 274.108V401.094L189.469 416.172V274.108H204.625Z" fill="#EBE7E8"/>
<path d="M151.578 274.108H181.894H189.469V416.172H68.2188V274.108H106.109H136.426H151.578Z" fill="#E2E0E1"/>
<path d="M189.469 274.106H178.102V416.169H189.469V274.106Z" fill="#EBE7E8"/>
<path d="M222.623 416.181C222.623 416.178 222.623 416.176 222.623 416.173V274.107C222.623 273.364 222.32 272.633 221.789 272.109C221.263 271.581 220.531 271.279 219.781 271.279H189.469H184.736V251.444C184.736 251.439 184.735 251.434 184.735 251.429C184.727 237.406 173.257 226 159.159 226C153.489 226 148.247 227.847 144.002 230.965C139.756 227.847 134.514 226 128.844 226C114.741 226 103.267 237.414 103.267 251.444C103.267 251.447 103.268 251.449 103.268 251.452V271.28H68.2188C67.4723 271.28 66.7372 271.581 66.2105 272.109C65.6801 272.633 65.377 273.364 65.377 274.107V367.169C65.377 368.726 66.6501 369.996 68.2188 369.996C69.7874 369.996 71.0605 368.726 71.0605 367.169V276.934H103.268V292.954C103.268 294.514 104.541 295.781 106.109 295.781C107.678 295.781 108.951 294.514 108.951 292.954V276.934H148.736V292.954C148.736 294.514 150.009 295.781 151.578 295.781C153.143 295.781 154.42 294.514 154.42 292.954V276.934H186.627V318.165V329.473V413.345H71.0605V378.477C71.0605 376.917 69.7874 375.65 68.2188 375.65C66.6501 375.65 65.377 376.917 65.377 378.477V416.173C65.377 416.915 65.6801 417.646 66.2105 418.17C66.7372 418.698 67.4723 419 68.2188 419H189.469H219.781C220.508 419 221.236 418.724 221.791 418.172C222.271 417.694 222.542 417.088 222.607 416.464C222.608 416.46 222.608 416.455 222.609 416.45C222.618 416.361 222.622 416.271 222.623 416.181ZM108.951 251.439C108.954 240.529 117.876 231.654 128.844 231.654C132.868 231.654 136.614 232.852 139.748 234.904C135.91 239.356 133.583 245.133 133.583 251.444C133.583 251.452 133.584 251.459 133.584 251.466V271.279H108.951V251.444C108.951 251.443 108.951 251.441 108.951 251.439ZM139.267 271.279V251.444C139.267 251.439 139.267 251.435 139.267 251.43C139.27 246.56 141.055 242.098 144.002 238.648C146.95 242.101 148.735 246.565 148.737 251.439C148.737 251.441 148.737 251.443 148.737 251.444V271.279H139.267ZM154.42 251.452C154.42 251.449 154.42 251.447 154.42 251.444C154.42 245.133 152.093 239.356 148.255 234.904C151.389 232.852 155.135 231.654 159.159 231.654C170.128 231.654 179.052 240.532 179.052 251.444C179.052 251.447 179.053 251.449 179.053 251.452V271.28H154.42V251.452ZM216.939 409.347L207.466 399.922V276.934H216.939V409.347ZM192.311 329.473V318.165V276.934H201.782V399.922L192.311 409.346V329.473ZM204.624 405.091L212.921 413.345H196.328L204.624 405.091Z" fill="black"/>
<g clip-path="url(#clip3)">
<path d="M133 340.975L144.009 345.763L161.441 315.278L154.796 312.167L133 340.975Z" fill="#77B0FF"/>
<path d="M125.631 338.81H160.781C160.781 355.625 144.914 369.462 125.631 369.462C106.348 369.462 90.4827 355.625 90.4827 338.81C90.4827 338.725 90.4827 338.638 90.4827 338.552L125.631 338.81Z" fill="#77B0FF"/>
<path d="M125.631 382.396H97.3521C97.3521 373.422 110.118 366.028 125.631 366.028C141.144 366.028 153.908 373.422 153.908 382.396H125.631Z" fill="#77B0FF"/>
<path d="M166.066 315.114C167.068 312.536 164.722 309.222 160.825 307.712C156.928 306.202 152.957 307.068 151.955 309.646C150.952 312.225 153.299 315.539 157.196 317.049C161.093 318.559 165.064 317.693 166.066 315.114Z" fill="#77B0FF"/>
<path d="M117.102 342.74H121.742C124.757 342.74 126.958 343.82 126.958 346.927C126.958 349.894 124.757 351.319 121.742 351.319H119.035V357.599H117.102V342.74ZM121.477 349.779C123.797 349.779 125.06 348.83 125.06 346.927C125.06 344.98 123.791 344.277 121.477 344.277H119.035V349.779H121.477ZM122.861 349.802L127.402 357.599H125.248L121.371 350.805L122.861 349.802Z" fill="white"/>
<path d="M131.811 358.371L135.041 363.297H132.954L131.597 361.218C131.28 360.648 130.894 360.037 130.527 359.484H130.45C130.127 360.037 129.763 360.665 129.457 361.235L128.209 363.297H126.183L129.451 358.176L125.931 353.065H128.037L129.521 355.246C129.912 355.815 130.328 356.495 130.719 357.082H130.796C131.157 356.478 131.525 355.871 131.879 355.229L133.271 353.067H135.297L131.811 358.371Z" fill="white"/>
</g>
</g>
<defs>
<clipPath id="clip0">
<rect width="76.446" height="76.6943" fill="white" transform="translate(292.331 185.248)"/>
</clipPath>
<clipPath id="clip1">
<rect width="46.5324" height="46.6834" fill="white" transform="translate(386.504 233.043)"/>
</clipPath>
<clipPath id="clip2">
<rect width="194" height="193" fill="white" transform="translate(47 226)"/>
</clipPath>
<clipPath id="clip3">
<rect width="75.8161" height="75.4253" fill="white" transform="translate(90.4827 306.971)"/>
</clipPath>
</defs>
</svg>
