<svg width="114" height="113" viewBox="0 0 114 113" fill="none" xmlns="http://www.w3.org/2000/svg">
<g clip-path="url(#clip0)">
<path d="M63.9307 50.9433L80.4848 58.1171L106.696 12.4461L96.7041 7.78461L63.9307 50.9433Z" fill="#77B0FF"/>
<path d="M52.8504 47.6998H105.703C105.703 72.8927 81.8451 93.623 52.8504 93.623C23.8557 93.623 0 72.8927 0 47.6998C0 47.5726 0 47.443 0 47.3135L52.8504 47.6998Z" fill="#77B0FF"/>
<path d="M52.8504 113H10.3291C10.3291 99.5546 29.5248 88.478 52.8504 88.478C76.1759 88.478 95.3693 99.5546 95.3693 113H52.8504Z" fill="#77B0FF"/>
<path d="M113.65 12.2003C115.157 8.33757 111.629 3.37232 105.769 1.11012C99.9099 -1.15207 93.9384 0.145437 92.4316 4.00819C90.9249 7.87094 94.4533 12.8362 100.313 15.0984C106.172 17.3606 112.144 16.0631 113.65 12.2003Z" fill="#77B0FF"/>
<path d="M40.0261 53.5874H47.0022C51.5366 53.5874 54.8456 55.2068 54.8456 59.8613C54.8456 64.3054 51.5366 66.4406 47.0022 66.4406H42.9328V75.8492H40.0261V53.5874ZM46.6045 64.1342C50.0926 64.1342 51.9924 62.7114 51.9924 59.8613C51.9924 56.9441 50.0832 55.8915 46.6045 55.8915H42.9328V64.1342H46.6045ZM48.6857 64.1689L55.5129 75.8492H52.2737L46.4441 65.6702L48.6857 64.1689Z" fill="white"/>
<path d="M62.1425 77.0059L67.0001 84.3857H63.8609L61.8216 81.2718C61.3449 80.4182 60.7635 79.5021 60.2124 78.6739H60.0962C59.6102 79.5021 59.0637 80.4436 58.6033 81.2973L56.7267 84.3857H53.6805L58.594 76.7145L53.3015 69.0571H56.4686L58.6986 72.3236C59.287 73.1773 59.9125 74.1952 60.5008 75.0743H60.617C61.1589 74.1697 61.7123 73.2606 62.2448 72.2982L64.3376 69.0594H67.3838L62.1425 77.0059Z" fill="white"/>
</g>
<defs>
<clipPath id="clip0">
<rect width="114" height="113" fill="white"/>
</clipPath>
</defs>
</svg>
