<svg width="78" height="92" viewBox="0 0 78 92" fill="none" xmlns="http://www.w3.org/2000/svg">
<path d="M66.1684 7.16106C61.9229 2.32283 54.2484 0.248566 44.4304 0.248566H15.9361C14.9647 0.248602 14.0252 0.595101 13.2864 1.22577C12.5477 1.85643 12.0582 2.7299 11.906 3.68912L0.0414393 78.9241C-0.194389 80.4077 0.954588 81.7511 2.45852 81.7511H20.05L24.4679 53.7335L24.3308 54.6108C24.6456 52.6304 26.3396 51.1697 28.3457 51.1697H36.7051C53.1271 51.1697 65.9859 44.5006 69.7421 25.2083C69.8536 24.6377 69.9502 24.0824 70.0336 23.5398C69.5595 23.2888 69.5595 23.2888 70.0336 23.5398C71.1521 16.4092 70.026 11.5554 66.1684 7.16106Z" fill="#27346A"/>
<path d="M31.1991 20.9711C31.68 20.7421 32.206 20.6235 32.7387 20.6238H55.0778C57.7231 20.6238 60.1904 20.7959 62.4451 21.1588C63.076 21.2593 63.7037 21.3794 64.3272 21.5188C65.2108 21.7138 66.0843 21.9524 66.9444 22.2338C68.0529 22.604 69.0852 23.035 70.034 23.5398C71.1522 16.4064 70.026 11.5554 66.1684 7.16106C61.9204 2.32283 54.2484 0.248566 44.4305 0.248566H15.9336C13.9273 0.248566 12.2204 1.70899 11.906 3.68912L0.041441 78.9214C-0.194387 80.4074 0.954589 81.749 2.45609 81.749H20.05L29.2159 23.6336C29.306 23.0624 29.5336 22.5216 29.8791 22.0578C30.2245 21.594 30.6775 21.2211 31.1991 20.9711Z" fill="#27346A"/>
<path d="M69.7421 25.2083C65.9859 44.4978 53.1274 51.1697 36.7051 51.1697H28.3432C26.3372 51.1697 24.6428 52.6304 24.3311 54.6108L18.8349 89.4474C18.6295 90.7458 19.6338 91.9223 20.9476 91.9223H35.7767C36.6262 91.9221 37.4477 91.6188 38.0935 91.0671C38.7393 90.5154 39.1671 89.7514 39.2998 88.9125L39.4442 88.157L42.2391 70.4467L42.4192 69.4679C42.5519 68.6291 42.9796 67.8651 43.6254 67.3134C44.2711 66.7617 45.0926 66.4584 45.942 66.4581H48.1613C62.5264 66.4581 73.7746 60.6231 77.0616 43.7475C78.4336 36.6952 77.7236 30.8072 74.0942 26.6715C72.9934 25.4188 71.6262 24.3842 70.0336 23.5398C69.9474 24.0851 69.8539 24.6377 69.7421 25.2083Z" fill="#2790C3"/>
<path d="M66.1026 21.9728C65.5169 21.8018 64.9257 21.6504 64.3299 21.5189C63.7061 21.3817 63.0785 21.2625 62.4478 21.1612C60.1907 20.796 57.7252 20.6235 55.0774 20.6235H32.7411C32.208 20.6223 31.6816 20.742 31.2015 20.9736C30.6794 21.2228 30.2259 21.5955 29.8802 22.0594C29.5346 22.5234 29.3073 23.0645 29.218 23.6361L24.4704 53.7335L24.3333 54.6108C24.6456 52.6304 26.3396 51.1697 28.346 51.1697H36.7078C53.1299 51.1697 65.9883 44.5006 69.7445 25.2083C69.8563 24.6377 69.9502 24.0848 70.0364 23.5398C69.0851 23.0378 68.0556 22.604 66.9469 22.2363C66.6671 22.1436 66.3857 22.0557 66.1029 21.9728" fill="#1F264F"/>
</svg>
