<svg width="361" height="65" viewBox="0 0 361 65" fill="none" xmlns="http://www.w3.org/2000/svg">
<g clip-path="url(#clip0)">
<path d="M36.8647 29.3036L46.4105 33.4302L61.525 7.15925L55.7632 4.47786L36.8647 29.3036Z" fill="#77B0FF"/>
<path d="M30.477 27.438H60.954C60.954 41.9294 47.1965 53.854 30.477 53.854C13.7575 53.854 0 41.9294 0 27.438C0 27.3648 0 27.2903 0 27.2171L30.477 27.438Z" fill="#77B0FF"/>
<path d="M30.4768 65H5.95605C5.95605 57.2659 17.0251 50.8945 30.4768 50.8945C43.9286 50.8945 55.003 57.2659 55.003 65H30.4768Z" fill="#77B0FF"/>
<path d="M65.5353 7.01753C66.4042 4.79559 64.3695 1.93947 60.9908 0.638212C57.612 -0.66305 54.1687 0.0833044 53.2998 2.30524C52.4309 4.52718 54.4656 7.3833 57.8443 8.68456C61.2231 9.98582 64.6665 9.23947 65.5353 7.01753Z" fill="#77B0FF"/>
<path d="M23.0898 30.8246H27.1125C29.7272 30.8246 31.634 31.7561 31.634 34.4335C31.634 36.9898 29.7272 38.2194 27.1125 38.2194H24.7579V43.6234H23.0898V30.8246ZM26.8846 36.8914C28.8959 36.8914 29.9914 36.073 29.9914 34.4335C29.9914 32.7555 28.8905 32.1514 26.8846 32.1514H24.7579V36.8914H26.8846ZM28.0833 36.9113L32.0161 43.6234H30.1442L26.7826 37.7683L28.0833 36.9113Z" fill="white"/>
<path d="M35.835 44.2968L38.6441 48.5404H36.8246L35.6499 46.7493C35.3737 46.2583 35.0398 45.7313 34.7207 45.2562H34.6537C34.3748 45.7313 34.0597 46.2729 33.7928 46.7639L32.7107 48.5404H30.9542L33.7874 44.1278L30.7329 39.7231H32.5592L33.8464 41.6021C34.1844 42.0931 34.5464 42.6787 34.8856 43.1843H34.9527C35.2651 42.664 35.5842 42.141 35.8913 41.5875L37.0981 39.7245H38.8587L35.835 44.2968Z" fill="white"/>
<path d="M76.3757 38.4975C76.0928 37.5234 75.6785 36.576 75.24 36.0889C74.7037 35.5247 74.3617 35.4236 73.1228 35.4236H71.1852C70.3082 35.4236 70.205 35.4755 70.205 36.3458V41.9347H72.9712C74.4945 41.9347 74.7023 41.5502 75.0885 39.7564H76.0445V45.4452H75.063C74.7787 43.7019 74.3926 43.2668 72.9712 43.2668H70.209V47.2589C70.209 49.617 70.3632 49.7966 72.687 49.9496V50.8984H64.4204V49.9523C66.3835 49.774 66.6154 49.6196 66.6154 47.2616V37.8308C66.6154 35.55 66.3835 35.3451 64.4204 35.192V34.2432H73.1737C75.3956 34.2432 76.6868 34.2179 77.0998 34.1927C77.1253 34.6278 77.254 36.8315 77.3827 38.3432L76.3757 38.4975Z" fill="#77B0FF"/>
<path d="M88.8755 50.9011V49.9523C90.502 49.7221 90.502 49.44 90.1399 48.3381C89.8825 47.569 89.4695 46.4166 89.082 45.3906H84.0456C83.7613 46.189 83.4006 47.1591 83.1418 47.9536C82.6055 49.5691 83.2196 49.774 85.2591 49.9496V50.8984H78.8818V49.9523C80.5083 49.7474 80.9213 49.5172 81.7996 47.3641L87.1712 34.1155L88.4102 33.8853C90.0622 38.3432 91.8187 42.9048 93.4975 47.1857C94.4522 49.5691 94.6855 49.7474 96.363 49.9523V50.9011H88.8755ZM86.596 38.6519C85.8464 40.4962 85.121 42.2129 84.4787 44.0839H88.5845L86.596 38.6519Z" fill="#77B0FF"/>
<path d="M116.118 51.0555C115.964 51.0555 115.654 51.0555 115.343 51.0288C112.065 50.8758 111.109 50.1838 110.334 49.1073C109.301 47.6981 108.553 46.1345 107.675 44.5962C107.287 43.9055 106.925 43.7512 106.099 43.7512L105.583 43.7259V47.4665C105.583 49.5424 105.84 49.7221 107.778 49.9523V50.9011H99.8762V49.9523C101.839 49.7527 102.069 49.5424 102.069 47.4665V37.6525C102.069 35.6272 101.81 35.3451 99.8735 35.192V34.2432H107.365C109.663 34.2432 110.985 34.5 112.038 35.2173C113.072 35.9093 113.769 37.0364 113.769 38.6253C113.769 40.9061 112.245 42.1104 110.54 42.7771C110.928 43.5462 111.935 45.2123 112.71 46.3913C113.291 47.3291 113.948 48.2191 114.673 49.0527C115.267 49.7181 115.55 49.9243 116.299 50.1812L116.118 51.0555ZM106.28 42.672C107.391 42.672 108.242 42.4923 108.811 42.0066C109.663 41.2894 110.024 40.3153 110.024 39.0085C110.024 36.2925 108.45 35.3184 107.003 35.3184C106.306 35.3184 105.971 35.4209 105.815 35.5753C105.634 35.7283 105.583 36.0357 105.583 36.548V42.6693L106.28 42.672Z" fill="#77B0FF"/>
<path d="M133.833 50.9011V49.9523C135.796 49.7474 135.924 49.569 135.924 47.2616L135.899 37.2679C134.039 41.6753 132 46.5443 130.14 50.9011H129.288C127.61 46.724 125.777 41.9574 123.917 37.4729C123.582 45.5197 123.582 47.1086 123.582 48.0307C123.607 49.4147 124.118 49.774 126.061 49.9523V50.9011H119.657V49.9523C121.132 49.8192 121.802 49.5424 122.006 48.0055C122.109 47.2363 122.212 45.7752 122.811 37.3185C122.888 36.0889 122.707 35.397 120.487 35.1894V34.2406H126.065L131.048 45.5423L136.058 34.2406H141.507V35.1894C139.44 35.3943 139.208 35.5992 139.259 37.6499L139.467 47.2589C139.492 49.5664 139.601 49.6689 141.688 49.9496V50.8984L133.833 50.9011Z" fill="#77B0FF"/>
<path d="M154.957 50.9011V49.9523C156.584 49.7221 156.584 49.44 156.221 48.3381C155.964 47.569 155.551 46.4166 155.164 45.3906H150.128C149.844 46.189 149.482 47.1591 149.223 47.9536C148.687 49.5691 149.301 49.774 151.342 49.9496V50.8984H144.963V49.9523C146.59 49.7474 147.003 49.5172 147.881 47.3641L153.253 34.1155L154.492 33.8853C156.145 38.3432 157.9 42.9048 159.579 47.1857C160.535 49.5691 160.767 49.7474 162.446 49.9523V50.9011H154.957ZM152.678 38.6519C151.929 40.4962 151.203 42.2129 150.56 44.0839H154.666L152.678 38.6519Z" fill="#77B0FF"/>
<path d="M181.787 46.4938C181.426 47.7739 180.755 49.7221 180.342 50.619C179.671 50.7734 177.553 51.2843 175.589 51.2843C168.644 51.2843 165.777 46.8504 165.777 42.7758C165.777 37.4715 169.857 33.8839 176.055 33.8839C178.301 33.8839 180.289 34.4162 180.936 34.4987C181.07 35.703 181.245 37.5993 181.426 38.7264L180.393 38.9061C179.856 36.91 179.076 35.9599 177.711 35.4209C177.091 35.1641 176.162 35.0616 175.465 35.0616C171.721 35.0616 169.833 38.1635 169.833 42.1863C169.833 46.8757 172.26 50.0534 175.797 50.0534C177.967 50.0534 179.418 48.9263 180.807 46.1079L181.787 46.4938Z" fill="#77B0FF"/>
<path d="M186.564 50.9011V49.9523C188.528 49.774 188.759 49.6196 188.759 47.4665V37.7031C188.759 35.55 188.501 35.3451 186.564 35.192V34.2432H194.544V35.192C192.608 35.3717 192.349 35.55 192.349 37.7031V47.4665C192.349 49.5957 192.581 49.7474 194.544 49.9523V50.9011H186.564Z" fill="#77B0FF"/>
<path d="M207.894 50.9011V49.9523C209.52 49.7221 209.52 49.44 209.16 48.3381C208.901 47.569 208.489 46.4166 208.1 45.3906H203.065C202.781 46.189 202.419 47.1591 202.162 47.9536C201.625 49.5691 202.239 49.774 204.279 49.9496V50.8984H197.9V49.9523C199.528 49.7474 199.941 49.5172 200.819 47.3641L206.183 34.1155L207.423 33.8853C209.075 38.3432 210.832 42.9048 212.509 47.1857C213.465 49.5691 213.697 49.7474 215.376 49.9523V50.9011H207.894ZM205.623 38.6519C204.873 40.4962 204.148 42.2129 203.504 44.0839H207.61L205.623 38.6519Z" fill="#77B0FF"/>
<path d="M236.196 38.4722C235.679 36.8315 234.957 34.9605 232.575 34.9605C231.078 34.9605 230.097 36.0118 230.097 37.4463C230.097 38.8568 231.052 39.7085 233.325 40.8303C236.087 42.1876 237.844 43.521 237.844 46.0573C237.844 49.082 235.313 51.2857 231.621 51.2857C229.967 51.2857 228.496 50.8505 227.282 50.4872C227.127 49.8977 226.687 47.2323 226.508 46.028L227.515 45.7978C228.031 47.412 229.477 50.2051 232.008 50.2051C233.582 50.2051 234.538 49.2311 234.538 47.5916C234.538 46.1052 233.609 45.2336 231.44 44.0799C228.758 42.6454 226.999 41.3639 226.999 38.6985C226.999 36.0078 229.116 33.8813 232.99 33.8813C234.77 33.8813 236.114 34.2645 236.681 34.3417C236.784 35.2905 236.965 36.6226 237.172 38.238L236.196 38.4722Z" fill="#77B0FF"/>
<path d="M250.657 50.9011V49.9523C252.285 49.7221 252.285 49.44 251.923 48.3381C251.664 47.569 251.253 46.4166 250.864 45.3906H245.829C245.545 46.189 245.184 47.1591 244.925 47.9536C244.389 49.5691 245.003 49.774 247.042 49.9496V50.8984H240.665V49.9523C242.292 49.7474 242.705 49.5172 243.583 47.3641L248.946 34.1155L250.187 33.8853C251.839 38.3432 253.595 42.9048 255.274 47.1857C256.229 49.5691 256.461 49.7474 258.139 49.9523V50.9011H250.657ZM248.386 38.6519C247.636 40.4962 246.911 42.2129 246.269 44.0839H250.37L248.386 38.6519Z" fill="#77B0FF"/>
<path d="M279.658 35.192C278.083 35.3969 277.592 35.7243 277.513 36.8834C277.435 37.8827 277.359 38.7543 277.359 40.9833V51.1832H275.912L265.143 38.3698V44.1637C265.143 46.394 265.195 47.3933 265.277 48.1359C265.381 49.263 265.922 49.8525 267.833 49.9549V50.9037H261.429V49.9523C262.904 49.8192 263.546 49.44 263.708 48.2357C263.812 47.3135 263.863 46.3913 263.863 44.161V38.0877C263.863 37.2413 263.812 36.6784 263.326 36.0117C262.861 35.3717 262.242 35.2945 261.157 35.192V34.2432H266.193L276.031 45.5969V40.9833C276.031 38.7543 276.006 37.908 275.928 36.9605C275.85 35.8574 275.437 35.3198 273.294 35.192V34.2432H279.673L279.658 35.192Z" fill="#77B0FF"/>
<path d="M301.891 41.7272C304.602 42.2129 306.514 43.4943 306.514 45.9295C306.514 47.5184 305.506 49.0048 304.035 49.8245C302.718 50.5418 301.04 50.9011 299.129 50.9011H291.897V49.9523C293.886 49.7474 294.093 49.6196 294.093 47.4665V37.7031C294.093 35.55 293.757 35.3198 291.924 35.192V34.2432H299.774C301.737 34.2432 302.976 34.5001 304.008 35.1401C304.496 35.4388 304.898 35.8579 305.174 36.3565C305.45 36.8551 305.591 37.4163 305.584 37.9852C305.584 40.1117 303.57 41.3931 301.891 41.7272ZM298.613 41.3931C301.065 41.3931 301.965 40.3432 301.965 38.4469C301.965 36.2167 300.49 35.3717 299.073 35.3717C298.453 35.3717 298.066 35.4475 297.866 35.5766C297.581 35.7549 297.607 35.9865 297.607 36.5241V41.3931H298.613ZM297.604 47.4159C297.604 49.2603 298.457 49.8245 299.852 49.7993C301.272 49.774 302.667 48.5431 302.667 46.1598C302.667 43.674 301.402 42.495 298.511 42.495H297.607L297.604 47.4159Z" fill="#77B0FF"/>
<path d="M324.72 46.3913C324.513 47.4931 323.791 50.2091 323.557 50.9011H310.749V49.9523C313.022 49.7993 313.228 49.6196 313.228 47.4665V37.7031C313.228 35.55 312.971 35.3451 311.033 35.192V34.2432H319.091V35.192C317.079 35.3717 316.818 35.55 316.818 37.7031V47.6462C316.818 49.0554 316.87 49.6968 318.293 49.7221C318.344 49.7474 319.532 49.7474 319.634 49.7474C321.109 49.7474 321.494 49.44 322.113 48.748C322.604 48.2357 323.276 47.1338 323.74 46.0866L324.72 46.3913Z" fill="#77B0FF"/>
<path d="M338.277 50.9011V49.9523C339.904 49.7221 339.904 49.44 339.542 48.3381C339.284 47.569 338.871 46.4166 338.484 45.3906H333.447C333.165 46.189 332.802 47.1591 332.544 47.9536C332.007 49.5691 332.621 49.774 334.661 49.9496V50.8984H328.284V49.9523C329.91 49.7474 330.323 49.5172 331.201 47.3641L336.573 34.1155L337.812 33.8853C339.465 38.3432 341.221 42.9048 342.899 47.1857C343.854 49.5691 344.087 49.7474 345.765 49.9523V50.9011H338.277ZM335.998 38.6519C335.248 40.4962 334.523 42.2129 333.881 44.0839H337.986L335.998 38.6519Z" fill="#77B0FF"/>
<path d="M359.348 38.4722C358.832 36.8315 358.109 34.9605 355.728 34.9605C354.23 34.9605 353.248 36.0118 353.248 37.4463C353.248 38.8568 354.204 39.7085 356.477 40.8303C359.239 42.1876 360.996 43.521 360.996 46.0573C360.996 49.082 358.466 51.2857 354.773 51.2857C353.12 51.2857 351.647 50.8505 350.434 50.4872C350.28 49.8977 349.84 47.2323 349.66 46.028L350.667 45.7978C351.183 47.412 352.629 50.2051 355.16 50.2051C356.735 50.2051 357.691 49.2311 357.691 47.5916C357.691 46.1052 356.761 45.2336 354.592 44.0799C351.91 42.6454 350.15 41.3639 350.15 38.6985C350.15 36.0078 352.268 33.8813 356.141 33.8813C357.923 33.8813 359.266 34.2645 359.833 34.3417C359.937 35.2905 360.118 36.6226 360.324 38.238L359.348 38.4722Z" fill="#77B0FF"/>
</g>
<defs>
<clipPath id="clip0">
<rect width="361" height="65" fill="white"/>
</clipPath>
</defs>
</svg>
