<svg width="167" height="167" viewBox="0 0 167 167" fill="none" xmlns="http://www.w3.org/2000/svg">
<path d="M73.6353 71.7976C73.2312 71.6548 72.8444 71.5171 72.4738 71.384V62.7506C73.2984 63.0755 73.8774 63.5295 74.1836 63.9659C75.2186 65.4405 77.2526 65.7974 78.7272 64.7621C80.2015 63.7272 80.5583 61.6931 79.5234 60.2185C78.144 58.2527 75.6801 56.6013 72.4738 56.006V55.6831C72.4738 53.8817 71.0136 52.4214 69.2121 52.4214C67.411 52.4214 65.9504 53.8817 65.9504 55.6831V56.2425C65.588 56.3286 65.2211 56.4274 64.8502 56.539C61.0601 57.6809 58.1993 61.3582 57.8936 65.482C57.5909 69.5647 59.7593 73.1095 63.6936 74.9644C64.2002 75.2035 64.9729 75.5267 65.9504 75.911V86.4069C64.693 85.9698 63.5615 85.2989 62.8015 84.3549C61.6707 82.9524 59.6178 82.7312 58.2152 83.8608C56.8124 84.9909 56.5912 87.0442 57.7211 88.4474C59.8353 91.0718 62.919 92.5108 65.9504 93.1554V93.2835C65.9504 95.085 67.411 96.5453 69.2121 96.5453C70.9754 96.5453 72.4119 95.1457 72.4716 93.3967C77.8188 92.5914 81.591 89.1392 82.1931 84.399C82.8787 79.0031 79.3597 73.8212 73.6353 71.7976ZM64.3991 65.9644C64.4823 64.844 65.1046 63.7705 65.9504 63.1733V68.7818C64.8329 68.0969 64.3111 67.1513 64.3991 65.9644ZM75.7219 83.5767C75.5245 85.1292 74.3653 86.2418 72.4738 86.7497V78.3821C74.9873 79.6662 75.9365 81.8871 75.7219 83.5767Z" fill="#702ED3"/>
<path d="M71.8115 147.457H67.4626C65.6615 147.457 64.2009 148.917 64.2009 150.719C64.2009 152.52 65.6615 153.98 67.4626 153.98H71.8115C73.6129 153.98 75.0732 152.52 75.0732 150.719C75.0732 148.917 73.6129 147.457 71.8115 147.457Z" fill="#702ED3"/>
<path d="M145.834 104.824H134.179V102.769C134.179 94.993 128.675 88.4816 121.37 86.9473V15.6898C121.37 7.03846 114.305 0 105.621 0H33.6534C24.9694 0 17.9045 7.03846 17.9045 15.6898V151.281C17.9045 159.948 24.956 167 33.6237 167H136.1C143.266 167 149.096 161.17 149.096 154.005V108.086C149.095 106.284 147.635 104.824 145.834 104.824ZM127.656 102.769V104.824H108.468V102.769C108.468 97.453 112.772 93.1283 118.062 93.1283C123.352 93.1286 127.656 97.453 127.656 102.769ZM69.637 105.112C52.7488 105.112 39.0092 91.3722 39.0092 74.4836C39.0092 57.5954 52.7488 43.8558 69.637 43.8558C86.5256 43.8558 100.265 57.5954 100.265 74.4836C100.265 91.3722 86.5256 105.112 69.637 105.112ZM91.0554 104.824C100.568 98.0893 106.789 86.9992 106.789 74.4833C106.789 53.9978 90.1226 37.332 69.6374 37.332C49.1518 37.332 32.4861 53.9981 32.4861 74.4833C32.4861 94.9689 49.1521 111.635 69.6374 111.635C76.0042 111.635 82.0019 110.025 87.2454 107.191C87.1645 107.475 87.1211 107.775 87.1211 108.086V134.437H24.428V27.5762H114.846V86.9284C107.495 88.4271 101.945 94.9604 101.945 102.769V104.824H91.0554ZM33.6534 6.52344H105.621C110.708 6.52344 114.846 10.6352 114.846 15.6898V21.0528H24.428V15.6898C24.428 10.6352 28.5664 6.52344 33.6534 6.52344ZM24.428 151.281V140.961H87.1208V154.005C87.1208 156.359 87.7503 158.57 88.8499 160.477H33.6237C28.5531 160.477 24.428 156.351 24.428 151.281ZM142.572 154.005C142.572 157.573 139.669 160.477 136.1 160.477H100.116C96.5475 160.477 93.6439 157.573 93.6439 154.005V111.348H101.944V120.651C101.944 122.452 103.405 123.913 105.206 123.913C107.007 123.913 108.468 122.452 108.468 120.651V111.348H127.656V120.651C127.656 122.452 129.116 123.913 130.917 123.913C132.718 123.913 134.179 122.452 134.179 120.651V111.348H142.572V154.005H142.572Z" fill="#702ED3"/>
</svg>
