<svg width="22" height="23" viewBox="0 0 22 23" fill="none" xmlns="http://www.w3.org/2000/svg">
<g clip-path="url(#clip0)">
<path d="M16.145 14.87C17.4764 12.9706 18.0727 10.6157 17.8147 8.2764C17.5566 5.93709 16.4632 3.78592 14.7532 2.25324C13.0432 0.720569 10.8427 -0.0805745 8.59192 0.0100932C6.34116 0.100761 4.20615 1.07655 2.61401 2.74225C1.02188 4.40795 0.0900391 6.6407 0.00492414 8.99383C-0.0801909 11.347 0.687695 13.6469 2.15496 15.4336C3.62222 17.2202 5.68064 18.3618 7.91842 18.6299C10.1562 18.898 12.4083 18.2729 14.2241 16.8796H14.2228C14.264 16.9371 14.308 16.9917 14.3575 17.0449L19.6513 22.5793C19.9091 22.849 20.2588 23.0006 20.6236 23.0008C20.9883 23.0009 21.3382 22.8496 21.5962 22.58C21.8542 22.3105 21.9992 21.9448 21.9994 21.5635C21.9995 21.1822 21.8547 20.8164 21.5969 20.5467L16.3031 15.0123C16.254 14.9603 16.2011 14.9122 16.145 14.8686V14.87ZM16.4998 9.34424C16.4998 10.3825 16.3042 11.4106 15.9241 12.3698C15.5441 13.3291 14.987 14.2006 14.2848 14.9348C13.5825 15.669 12.7488 16.2513 11.8313 16.6487C10.9138 17.046 9.93039 17.2505 8.93727 17.2505C7.94415 17.2505 6.96075 17.046 6.04323 16.6487C5.1257 16.2513 4.29202 15.669 3.58977 14.9348C2.88753 14.2006 2.33048 13.3291 1.95043 12.3698C1.57038 11.4106 1.37477 10.3825 1.37477 9.34424C1.37477 7.24738 2.17153 5.23639 3.58977 3.75368C5.00802 2.27097 6.93157 1.438 8.93727 1.438C10.943 1.438 12.8665 2.27097 14.2848 3.75368C15.703 5.23639 16.4998 7.24738 16.4998 9.34424Z" fill="black"/>
</g>
<defs>
<clipPath id="clip0">
<rect width="22" height="23" fill="white"/>
</clipPath>
</defs>
</svg>
