<svg width="167" height="167" viewBox="0 0 167 167" fill="none" xmlns="http://www.w3.org/2000/svg">
<g clip-path="url(#clip0)">
<path d="M50.4764 118.484C50.6297 120.163 52.0381 121.448 53.7247 121.448H69.6569C71.4584 121.448 72.9186 119.988 72.9186 118.187V80.2888C72.9186 78.4874 71.4584 77.0271 69.6569 77.0271H50.2624C49.3455 77.0271 48.4714 77.413 47.8533 78.0898C47.2352 78.7669 46.9306 79.673 47.0141 80.5856L50.4764 118.484ZM66.3952 83.5505V114.925H56.702L53.8356 83.5505H66.3952Z" fill="#702ED3"/>
<path d="M84.9399 121.448H100.872C102.674 121.448 104.134 119.988 104.134 118.187V80.2888C104.134 78.4874 102.674 77.0271 100.872 77.0271H84.9399C83.1385 77.0271 81.6782 78.4874 81.6782 80.2888V118.186C81.6782 119.988 83.1388 121.448 84.9399 121.448ZM88.2017 83.5505H97.6104V114.925H88.2017V83.5505Z" fill="#702ED3"/>
<path d="M116.156 121.448H132.088C133.663 121.448 135.013 120.323 135.296 118.773L142.221 80.8755C142.396 79.9234 142.138 78.9433 141.518 78.2003C140.898 77.4572 139.981 77.0273 139.013 77.0273H116.156C114.354 77.0273 112.894 78.4876 112.894 80.2891V118.187C112.894 119.988 114.354 121.448 116.156 121.448ZM119.417 83.5505H135.101L129.368 114.925H119.417V83.5505Z" fill="#702ED3"/>
<path d="M166.939 44.0892C166.935 42.291 165.476 40.8356 163.678 40.8356H121.173C122.386 37.6418 123.05 34.1798 123.05 30.5658C123.05 14.5726 110.039 1.56128 94.0455 1.56128C78.0523 1.56128 65.041 14.5726 65.041 30.5658C65.041 34.1801 65.7054 37.6418 66.9187 40.8356H27.3453L23.5248 17.21C23.2694 15.6301 21.9054 14.4692 20.3049 14.4692H3.26172C1.46027 14.4692 0 15.9298 0 17.7309C0 19.532 1.46027 20.9926 3.26172 20.9926H17.5285L21.3411 44.5683L24.3797 68.0335C24.38 68.0364 24.3807 68.0393 24.381 68.0423C24.3817 68.0475 24.3823 68.0527 24.383 68.0579L32.1605 124.754C32.9613 130.59 37.8252 135.038 43.5984 135.322C40.9342 138.512 39.3262 142.633 39.3262 147.126C39.3262 157.224 47.4463 165.439 57.4271 165.439C67.4083 165.439 75.5284 157.224 75.5284 147.126C75.5284 142.639 73.9252 138.525 71.2682 135.337H111.369C108.712 138.525 107.109 142.64 107.109 147.126C107.109 157.224 115.229 165.439 125.21 165.439C135.191 165.439 143.311 157.224 143.311 147.126C143.311 142.533 141.631 138.33 138.86 135.112C146.251 133.898 152.239 127.889 153.295 120.193L160.06 70.8761H163.738C164.605 70.8761 165.436 70.5313 166.048 69.9174C166.659 69.3039 167.002 68.4722 167 67.6059L166.939 44.0892ZM94.0455 8.08472C106.442 8.08472 116.527 18.1696 116.527 30.5658C116.527 42.9619 106.442 53.0472 94.0455 53.0472C81.6493 53.0472 71.5644 42.9619 71.5644 30.5658C71.5641 18.1696 81.6493 8.08472 94.0455 8.08472ZM70.4091 47.3591C75.6719 54.7449 84.3056 59.5703 94.0451 59.5703C103.785 59.5703 112.419 54.7449 117.682 47.3591H160.424L160.468 64.3526H30.4808L28.2801 47.3591H70.4091ZM69.0046 147.126C69.0046 153.627 63.811 158.915 57.4268 158.915C51.0426 158.915 45.8493 153.627 45.8493 147.126C45.8493 140.625 51.043 135.337 57.4268 135.337C63.8106 135.337 69.0046 140.626 69.0046 147.126ZM125.209 158.915C118.825 158.915 113.632 153.627 113.632 147.126C113.632 140.625 118.825 135.337 125.209 135.337C131.593 135.337 136.787 140.626 136.787 147.126C136.787 153.627 131.593 158.915 125.209 158.915ZM146.831 119.306C146.088 124.726 141.475 128.813 136.102 128.813H44.1872C41.402 128.813 39.0102 126.687 38.6233 123.867L31.3539 70.8761H153.475L146.831 119.306Z" fill="#702ED3"/>
<path d="M87.6782 33.8274H90.7837V36.9329C90.7837 38.734 92.244 40.1946 94.0454 40.1946C95.8469 40.1946 97.3071 38.734 97.3071 36.9329V33.8274H100.413C102.214 33.8274 103.675 32.3668 103.675 30.5657C103.675 28.7646 102.214 27.304 100.413 27.304H97.3071V24.1985C97.3071 22.3974 95.8469 20.9368 94.0454 20.9368C92.244 20.9368 90.7837 22.3974 90.7837 24.1985V27.304H87.6782C85.8768 27.304 84.4165 28.7646 84.4165 30.5657C84.4165 32.3668 85.8768 33.8274 87.6782 33.8274Z" fill="#702ED3"/>
</g>
<defs>
<clipPath id="clip0">
<rect width="167" height="167" fill="white"/>
</clipPath>
</defs>
</svg>
