<svg width="36" height="36" viewBox="0 0 36 36" fill="none" xmlns="http://www.w3.org/2000/svg">
<path d="M13.5 32C14.8807 32 16 30.8807 16 29.5C16 28.1193 14.8807 27 13.5 27C12.1193 27 11 28.1193 11 29.5C11 30.8807 12.1193 32 13.5 32Z" fill="#77B0FF"/>
<path d="M26.5 32C27.8807 32 29 30.8807 29 29.5C29 28.1193 27.8807 27 26.5 27C25.1193 27 24 28.1193 24 29.5C24 30.8807 25.1193 32 26.5 32Z" fill="#77B0FF"/>
<path d="M33.1 6.39C33.0068 6.26898 32.8872 6.17091 32.7503 6.10331C32.6133 6.0357 32.4627 6.00036 32.31 6H9.20999L8.75999 4.57C8.71056 4.41645 8.62472 4.27715 8.50979 4.16396C8.39487 4.05078 8.25427 3.96708 8.09999 3.92L3.99999 2.66C3.87392 2.62126 3.74145 2.60773 3.61016 2.62018C3.47886 2.63263 3.3513 2.67083 3.23476 2.73258C2.9994 2.85729 2.82323 3.07039 2.74499 3.325C2.66675 3.5796 2.69286 3.85486 2.81757 4.09022C2.94228 4.32558 3.15538 4.50176 3.40999 4.58L6.99999 5.68L11.58 20.15L9.94999 21.49L9.81999 21.62C9.41689 22.0868 9.1885 22.6791 9.17391 23.2957C9.15932 23.9122 9.35942 24.5147 9.73999 25C10.0125 25.3315 10.3589 25.5945 10.7513 25.7682C11.1438 25.9418 11.5714 26.0212 12 26H28.69C28.9552 26 29.2096 25.8946 29.3971 25.7071C29.5846 25.5196 29.69 25.2652 29.69 25C29.69 24.7348 29.5846 24.4804 29.3971 24.2929C29.2096 24.1054 28.9552 24 28.69 24H11.84C11.7248 23.9961 11.6126 23.9625 11.5142 23.9025C11.4159 23.8426 11.3346 23.7583 11.2783 23.6578C11.222 23.5572 11.1926 23.4439 11.1929 23.3286C11.1932 23.2134 11.2232 23.1002 11.28 23L13.69 21H29.12C29.3484 21.0067 29.5722 20.9349 29.7542 20.7966C29.9361 20.6583 30.0652 20.4619 30.12 20.24L33.32 7.24C33.3504 7.09091 33.3464 6.93686 33.3083 6.78956C33.2701 6.64226 33.1989 6.5056 33.1 6.39Z" fill="#77B0FF"/>
</svg>
