<svg width="58" height="58" viewBox="0 0 58 58" fill="none" xmlns="http://www.w3.org/2000/svg">
<path d="M21.7499 51.5556C23.9744 51.5556 25.7777 49.7523 25.7777 47.5278C25.7777 45.3033 23.9744 43.5 21.7499 43.5C19.5255 43.5 17.7222 45.3033 17.7222 47.5278C17.7222 49.7523 19.5255 51.5556 21.7499 51.5556Z" fill="white"/>
<path d="M42.6945 51.5556C44.919 51.5556 46.7223 49.7523 46.7223 47.5278C46.7223 45.3033 44.919 43.5 42.6945 43.5C40.47 43.5 38.6667 45.3033 38.6667 47.5278C38.6667 49.7523 40.47 51.5556 42.6945 51.5556Z" fill="white"/>
<path d="M53.3277 10.2952C53.1776 10.1002 52.9849 9.94221 52.7643 9.83329C52.5436 9.72437 52.301 9.66744 52.055 9.66684H14.8383L14.1133 7.36296C14.0336 7.11558 13.8954 6.89115 13.7102 6.70879C13.525 6.52644 13.2985 6.39159 13.05 6.31573L6.4444 4.28573C6.24129 4.22332 6.02787 4.20152 5.81634 4.22159C5.6048 4.24165 5.39929 4.30318 5.21153 4.40267C4.83235 4.60359 4.54851 4.94692 4.42245 5.35712C4.2964 5.76732 4.33847 6.2108 4.53939 6.58999C4.74031 6.96917 5.08364 7.25301 5.49384 7.37907L11.2777 9.15129L18.6566 32.4641L16.0305 34.623L15.8211 34.8324C15.1716 35.5844 14.8037 36.5387 14.7802 37.5321C14.7567 38.5254 15.079 39.4961 15.6922 40.278C16.1313 40.812 16.6893 41.2358 17.3216 41.5156C17.9538 41.7953 18.6428 41.9232 19.3333 41.8891H46.2227C46.65 41.8891 47.0598 41.7193 47.362 41.4172C47.6641 41.115 47.8338 40.7052 47.8338 40.278C47.8338 39.8507 47.6641 39.4409 47.362 39.1387C47.0598 38.8366 46.65 38.6668 46.2227 38.6668H19.0755C18.89 38.6605 18.7092 38.6064 18.5507 38.5098C18.3922 38.4133 18.2612 38.2774 18.1705 38.1154C18.0798 37.9535 18.0324 37.7709 18.0329 37.5852C18.0334 37.3996 18.0817 37.2172 18.1733 37.0557L22.0561 33.8335H46.9155C47.2835 33.8442 47.6441 33.7286 47.9373 33.5058C48.2304 33.283 48.4384 32.9665 48.5266 32.6091L53.6822 11.6646C53.7312 11.4244 53.7247 11.1762 53.6633 10.9389C53.6019 10.7016 53.4871 10.4814 53.3277 10.2952Z" fill="white"/>
</svg>
