<svg width="167" height="167" viewBox="0 0 167 167" fill="none" xmlns="http://www.w3.org/2000/svg">
<g clip-path="url(#clip0)">
<path d="M137.384 90.2249H85.6086C83.8075 90.2249 82.3469 91.6851 82.3469 93.4866V126.391C82.3469 128.193 83.8075 129.653 85.6086 129.653H137.384C139.186 129.653 140.646 128.193 140.646 126.391V93.4866C140.646 91.6851 139.186 90.2249 137.384 90.2249ZM134.122 123.13H88.8704V96.7486H134.122V123.13Z" fill="#702ED3"/>
<path d="M153.402 15.4512H13.5984C6.10039 15.4512 0 21.5516 0 29.0499V57.678C0 64.1813 4.17663 69.72 9.96977 71.7161V148.288C9.96977 150.089 11.43 151.549 13.2315 151.549H153.768C155.569 151.549 157.03 150.089 157.03 148.288V71.7161C162.823 69.72 167 64.1809 167 57.678V29.0499C167 21.5516 160.9 15.4512 153.402 15.4512ZM32.8775 145.026V96.7482H63.9473V145.026H32.8775ZM70.4707 145.026V93.4865C70.4707 91.6851 69.0105 90.2248 67.209 90.2248H29.6158C27.8146 90.2248 26.354 91.6851 26.354 93.4865V145.026H16.4932V72.4027C20.3965 71.9298 23.8347 69.9127 26.1867 66.9772C28.8881 70.3492 33.0229 72.5094 37.6497 72.5094C42.2764 72.5094 46.411 70.3492 49.1127 66.9772C51.814 70.3492 55.9489 72.5094 60.5753 72.5094C65.2018 72.5094 69.3363 70.3492 72.0377 66.9775C74.739 70.3492 78.8739 72.5094 83.5007 72.5094C88.1271 72.5094 92.2616 70.3492 94.9633 66.9775C97.6647 70.3492 101.8 72.5094 106.426 72.5094C111.052 72.5094 115.187 70.3492 117.889 66.9772C120.59 70.3492 124.725 72.5094 129.352 72.5094C133.978 72.5094 138.113 70.3492 140.815 66.9772C143.166 69.9127 146.605 71.9298 150.508 72.4027V145.026H70.4707ZM160.477 57.678C160.477 62.2591 156.798 65.9863 152.275 65.9863C147.754 65.9863 144.075 62.2591 144.075 57.678C144.075 57.6369 144.074 57.5958 144.072 57.5547V48.4523C144.072 46.6508 142.611 45.1905 140.81 45.1905C139.009 45.1905 137.549 46.6508 137.549 48.4523V57.678C137.549 57.7133 137.55 57.7485 137.551 57.7834C137.494 62.3162 133.837 65.986 129.35 65.986C124.828 65.986 121.149 62.2588 121.149 57.6777C121.149 55.8763 119.688 54.416 117.887 54.416C116.086 54.416 114.625 55.8763 114.625 57.6777C114.625 62.2588 110.946 65.986 106.424 65.986C101.903 65.986 98.2234 62.2588 98.2234 57.6777C98.2234 57.6187 98.2218 57.5596 98.2185 57.5013V48.4519C98.2185 46.6505 96.7579 45.1902 94.9568 45.1902C93.1557 45.1902 91.6951 46.6505 91.6951 48.4519V57.6777C91.6951 57.7263 91.6964 57.7749 91.6983 57.8229C91.6217 62.3371 87.9728 65.9856 83.499 65.9856C78.977 65.9856 75.2978 62.2585 75.2978 57.6774C75.2978 55.8759 73.8375 54.4157 72.036 54.4157C70.2349 54.4157 68.7743 55.8759 68.7743 57.6774C68.7743 62.2585 65.0957 65.9856 60.5737 65.9856C56.052 65.9856 52.3728 62.2585 52.3728 57.6774V48.4516C52.3728 46.6502 50.9122 45.1899 49.111 45.1899C47.3099 45.1899 45.8493 46.6502 45.8493 48.4516V57.6774C45.8493 62.2585 42.1704 65.9856 37.6481 65.9856C33.126 65.9856 29.4468 62.2585 29.4468 57.6774C29.4468 55.8759 27.9862 54.4157 26.1851 54.4157C24.384 54.4157 22.9234 55.8759 22.9234 57.6774C22.9234 62.2585 19.2445 65.9856 14.7224 65.9856C10.2004 65.9856 6.52344 62.2588 6.52344 57.678V29.0499C6.52344 25.1486 9.69709 21.9746 13.5984 21.9746H153.401C157.303 21.9746 160.476 25.1486 160.476 29.0499V57.678H160.477Z" fill="#702ED3"/>
</g>
<defs>
<clipPath id="clip0">
<rect width="167" height="167" fill="white"/>
</clipPath>
</defs>
</svg>
