<svg width="27" height="24" viewBox="0 0 27 24" fill="none" xmlns="http://www.w3.org/2000/svg">
<path d="M15.0489 11.9943L26.6797 1.65183C26.8849 1.46865 27 1.22069 26.9998 0.96227C26.9996 0.703848 26.8841 0.456027 26.6786 0.273087C26.2674 -0.0904172 25.5431 -0.0922528 25.1277 0.274923L13.5 10.6174L1.86822 0.272169C1.4549 -0.0904172 0.730563 -0.0885814 0.319312 0.274005C0.217235 0.364324 0.13643 0.4718 0.0816104 0.59016C0.0267912 0.70852 -0.000943529 0.835394 2.44933e-05 0.963378C2.44933e-05 1.22407 0.113687 1.46824 0.319312 1.64908L11.9501 11.9933L0.320346 22.3385C0.115118 22.522 0.000188831 22.7703 0.000769968 23.0289C0.00135111 23.2876 0.117396 23.5355 0.323446 23.7182C0.522871 23.8935 0.80496 23.9945 1.09635 23.9945H1.10255C1.39497 23.9936 1.67706 23.8917 1.87235 23.7145L13.5 13.3721L25.1318 23.7173C25.3374 23.899 25.6123 24 25.9037 24C26.0478 24.0004 26.1905 23.9754 26.3237 23.9266C26.4569 23.8778 26.5779 23.8061 26.6798 23.7155C26.7817 23.625 26.8624 23.5175 26.9174 23.3992C26.9723 23.2809 27.0004 23.1541 27 23.0261C27 22.7663 26.8863 22.5212 26.6797 22.3404L15.0489 11.9943Z" fill="black"/>
</svg>
